inDegrees=yes
name=ik_Shooting_orientations_zug
DataType=double
version=3
OpenSimVersion=4.3-2021-08-27-4bc7ad9
endheader
time	pelvis_tilt	pelvis_list	pelvis_rotation	pelvis_tx	pelvis_ty	pelvis_tz	hip_flexion_r	hip_adduction_r	hip_rotation_r	knee_angle_r	knee_angle_r_beta	ankle_angle_r	subtalar_angle_r	mtp_angle_r	hip_flexion_l	hip_adduction_l	hip_rotation_l	knee_angle_l	knee_angle_l_beta	ankle_angle_l	subtalar_angle_l	mtp_angle_l	lumbar_extension	lumbar_bending	lumbar_rotation	arm_flex_r	arm_add_r	arm_rot_r	elbow_flex_r	pro_sup_r	wrist_flex_r	wrist_dev_r	arm_flex_l	arm_add_l	arm_rot_l	elbow_flex_l	pro_sup_l	wrist_flex_l	wrist_dev_l
10	-2.5266367002862	-1.650382312633769	147.2672911860725	0	0.9399999999999999	0	45.0014522243954	-9.999987176201417	0	59.96188362169547	1.046532294896248	-4.999997113047442	0	0	45.0014522243954	-9.999987176201417	0	59.96188362169547	1.046532294896248	-4.999997113047442	0	0	-0.1336554266060258	-1.572694960162479	-2.053864236072036	5.60110401108884	31.58186435341055	3.673988819241776	0.006315863425879485	45.00003939749111	0	0	0	-14.81899726275093	0	75.00203989452514	45.00003939749111	0	0
10.01	-2.540424690539604	-1.651341550277042	147.2393022639085	0	0.9399999999999999	0	45.00145193588312	-9.999987185105237	0	59.96188958301143	1.046532398940839	-4.999997115530001	0	0	45.00145193588312	-9.999987185105237	0	59.96188958301143	1.046532398940839	-4.999997115530001	0	0	-0.1558823236397477	-1.58099616528637	-2.010176807996571	5.337901859137438	31.31915482640373	3.880091069521395	0.006353650076097049	45.00003937597833	0	0	0	-14.81901566255162	0	75.00203952416751	45.00003937597833	0	0
10.02	-2.543248466741785	-1.662101537078159	147.2427861225764	0	0.9399999999999999	0	45.00145172113139	-9.999987191709566	0	59.96189403170153	1.046532476585129	-4.999997117370031	0	0	45.00145172113139	-9.999987191709566	0	59.96189403170153	1.046532476585129	-4.999997117370031	0	0	-0.1471474567550352	-1.592905140418835	-2.009288065006797	5.296129447012424	31.12552147044158	4.0744849468449	0.006315589948209144	45.00003936001094	0	0	0	-14.8190293842668	0	75.00203924849488	45.00003936001094	0	0
10.03	-2.563323423048446	-1.64241984275446	147.2177104782008	0	0.9399999999999999	0	45.00145142589174	-9.999987200815539	0	59.96190013115326	1.046532583040644	-4.999997119908145	0	0	45.00145142589174	-9.999987200815539	0	59.96190013115326	1.046532583040644	-4.999997119908145	0	0	-0.1936508813471041	-1.588010994423647	-2.012982853277374	5.082534644283614	30.91579928467217	4.238822008134234	0.006382971663514923	45.00003933800517	0	0	0	-14.81904821340287	0	75.0020388695015	45.00003933800517	0	0
10.04	-2.576929438483652	-1.634605628545083	147.2096655042648	0	0.9399999999999999	0	45.0014510980117	-9.999987210926179	0	59.96190690330622	1.046532701237011	-4.999997122725804	0	0	45.0014510980117	-9.999987210926179	0	59.96190690330622	1.046532701237011	-4.999997122725804	0	0	-0.2214455551920283	-1.58921754533692	-1.999940931492036	4.767446373231209	30.72941588008948	4.43049325210147	0.006483056188402133	45.00003931356906	0	0	0	-14.81906912215647	0	75.00203844860822	45.00003931356906	0	0
10.05	-2.565199126040633	-1.645020293876703	147.2186514590955	0	0.9399999999999999	0	45.0014508748313	-9.999987217771844	0	59.96191153170974	1.046532782017891	-4.999997124631492	0	0	45.0014508748313	-9.999987217771844	0	59.96191153170974	1.046532782017891	-4.999997124631492	0	0	-0.18301847763274	-1.581631074676053	-1.980334365090038	4.769460903851558	30.56532726825295	4.611333332043073	0.006452490799694542	45.00003929700793	0	0	0	-14.81908339644322	0	75.00203816211585	45.00003929700793	0	0
10.06	-2.585549090588625	-1.637168334572872	147.2292552159385	0	0.9399999999999999	0	45.00145064875748	-9.999987224727546	0	59.96191620665587	1.046532863611094	-4.999997126568705	0	0	45.00145064875748	-9.999987224727546	0	59.96191620665587	1.046532863611094	-4.999997126568705	0	0	-0.2091604071747474	-1.589563285756094	-1.975242722424379	4.572605157061963	30.29524144037996	4.584032278748302	0.006525254380704804	45.00003928018855	0	0	0	-14.81909782693459	0	75.00203787190927	45.00003928018855	0	0
10.07	-2.589642476399974	-1.631055815537733	147.2211558890972	0	0.9399999999999999	0	45.00145039653091	-9.999987232485642	0	59.96192142221695	1.046532954639807	-4.999997128729072	0	0	45.00145039653091	-9.999987232485642	0	59.96192142221695	1.046532954639807	-4.999997128729072	0	0	-0.2248618540323182	-1.594881787450539	-1.971306879714804	4.453665240538243	29.96982365584321	4.739340129664751	0.006529788067381608	45.00003926142714	0	0	0	-14.81911392720064	0	75.00203754813091	45.00003926142714	0	0
10.08	-2.608958403449612	-1.623255568763177	147.2330999379981	0	0.9399999999999999	0	45.00145017351964	-9.999987239341241	0	59.96192603422691	1.046533035134566	-4.999997130637711	0	0	45.00145017351964	-9.999987239341241	0	59.96192603422691	1.046533035134566	-4.999997130637711	0	0	-0.2506726597649387	-1.602568459922224	-1.99051934535019	4.158794875222581	29.6501731149834	4.585030938252292	0.00670349463870056	45.00003924484571	0	0	0	-14.81912816465343	0	75.00203726185568	45.00003924484571	0	0
10.09	-2.607237497986242	-1.603269940638095	147.2180469883965	0	0.9399999999999999	0	45.00144989707046	-9.999987247843466	0	59.96193174765629	1.04653313485272	-4.999997133004775	0	0	45.00144989707046	-9.999987247843466	0	59.96193174765629	1.04653313485272	-4.999997133004775	0	0	-0.2599171292943162	-1.581150515390364	-1.980784846575099	3.917288776840838	29.26663394612502	4.552507499212234	0.006845947259748511	45.00003922428233	0	0	0	-14.81914580647063	0	75.00203690698325	45.00003922428233	0	0
10.1	-2.615883675435978	-1.601051985118062	147.2085098343811	0	0.9399999999999999	0	45.00144965804343	-9.99998725518377	0	59.96193669210511	1.046533221149631	-4.99999713504756	0	0	45.00144965804343	-9.99998725518377	0	59.96193669210511	1.046533221149631	-4.99999713504756	0	0	-0.2684396786907985	-1.583561284562272	-1.976771133150953	3.848019755271651	28.91585055059175	4.67992374689013	0.006826878049515746	45.00003920652358	0	0	0	-14.81916107083368	0	75.00203660014886	45.00003920652358	0	0
10.11	-2.619504970630344	-1.589394218310035	147.2173369942844	0	0.9399999999999999	0	45.00144941098588	-9.999987262769913	0	59.96194180165384	1.04653331032808	-4.999997137158528	0	0	45.00144941098588	-9.999987262769913	0	59.96194180165384	1.04653331032808	-4.999997137158528	0	0	-0.281647189194124	-1.565880623377084	-1.985880337699071	3.744447767160436	28.66941864896471	4.749796933514571	0.006864455534430941	45.0000391881689	0	0	0	-14.81917684663654	0	75.00203628300588	45.0000391881689	0	0
10.12	-2.647284246048409	-1.57915524577684	147.2286160227094	0	0.9399999999999999	0	45.00144919898294	-9.999987269274696	0	59.96194618738335	1.0465333868735	-4.999997138968116	0	0	45.00144919898294	-9.999987269274696	0	59.96194618738335	1.0465333868735	-4.999997138968116	0	0	-0.3161114011567507	-1.587563926091955	-2.006254655102897	3.46747291723053	28.33319381828802	4.505284754433754	0.007166419019144013	45.00003917242757	0	0	0	-14.81919038740055	0	75.00203601086184	45.00003917242757	0	0
10.13	-2.666731388954863	-1.565093328827736	147.2338980268417	0	0.9399999999999999	0	45.00144899019495	-9.99998727567762	0	59.96195050708887	1.046533462266584	-4.999997140749028	0	0	45.00144899019495	-9.99998727567762	0	59.96195050708887	1.046533462266584	-4.999997140749028	0	0	-0.3476266538345547	-1.580948408781955	-2.011518350845599	3.204597419237122	28.12589060065338	4.276550453755111	0.007450840111044651	45.00003915693061	0	0	0	-14.81920372457044	0	75.00203574284478	45.00003915693061	0	0
10.14	-2.65752771821274	-1.561807658619685	147.2287733356609	0	0.9399999999999999	0	45.00144870406403	-9.999987284462755	0	59.96195641999302	1.04653356546623	-4.999997143192893	0	0	45.00144870406403	-9.999987284462755	0	59.96195641999302	1.04653356546623	-4.999997143192893	0	0	-0.3392054219958102	-1.568494754582084	-2.022571270450362	3.178899609962928	27.95833752844703	4.030089046129068	0.007671755509403929	45.00003913567163	0	0	0	-14.81922198786796	0	75.0020353755441	45.00003913567163	0	0
10.15	-2.661835747064234	-1.559682982846243	147.2323203498196	0	0.9399999999999999	0	45.00144843885568	-9.999987292600293	0	59.96196190147796	1.04653366113619	-4.99999714545607	0	0	45.00144843885568	-9.999987292600293	0	59.96196190147796	1.04653366113619	-4.99999714545607	0	0	-0.3637635859596381	-1.568021171189111	-2.01463784302473	3.183574838781579	27.72343248285261	3.887148516252452	0.007833365726040931	45.00003911597643	0	0	0	-14.81923891886748	0	75.00203503510126	45.00003911597643	0	0
